<?xml version="1.0" standalone="no"?>
<!DOCTYPE svg PUBLIC "-//W3C//DTD SVG 20010904//EN"
 "http://www.w3.org/TR/2001/REC-SVG-20010904/DTD/svg10.dtd">
<svg version="1.0" xmlns="http://www.w3.org/2000/svg"
 width="279.000000pt" height="275.000000pt" viewBox="0 0 279.000000 275.000000"
 preserveAspectRatio="xMidYMid meet">

<g transform="translate(0.000000,275.000000) scale(0.100000,-0.100000)"
fill="#000000" stroke="none">
<path d="M1234 2602 c3 -5 6 -59 7 -120 l2 -112 46 1 c25 0 55 4 66 9 15 7 9
9 -25 7 l-45 -2 -12 110 c-13 130 -9 115 -29 115 -8 0 -13 -4 -10 -8z"/>
<path d="M1610 2390 c0 -5 9 -10 20 -10 23 0 27 -25 5 -34 -18 -7 -124 -14
-289 -21 -65 -2 -121 -7 -124 -10 -3 -3 2 -11 11 -18 14 -10 19 -42 27 -167 6
-85 9 -185 8 -223 -2 -37 0 -67 3 -67 25 0 49 67 36 100 -10 24 -25 344 -16
354 4 5 91 12 192 16 101 4 189 10 196 14 17 11 13 34 -9 56 -21 21 -60 27
-60 10z"/>
<path d="M830 2301 c-42 -4 -59 -9 -47 -13 22 -9 324 2 352 13 23 9 -205 9
-305 0z"/>
<path d="M1030 2160 c0 -5 5 -10 10 -10 6 0 10 -18 10 -40 0 -28 -4 -40 -14
-40 -8 0 -29 18 -46 40 -43 54 -57 51 -67 -12 -4 -28 -13 -53 -20 -55 -7 -3
-21 16 -33 41 -11 25 -27 46 -35 46 -23 0 -25 -15 -4 -33 20 -18 25 -37 9 -37
-5 0 -30 7 -56 16 -25 8 -53 13 -62 9 -15 -5 -14 -8 4 -23 12 -9 29 -32 38
-49 9 -18 23 -33 31 -33 24 0 24 15 -1 39 -14 13 -22 26 -19 29 3 3 31 -3 62
-12 65 -20 118 -10 107 19 -9 23 26 32 42 11 10 -14 25 -17 76 -15 75 3 88 6
88 25 0 12 -4 12 -21 4 -36 -20 -51 -5 -47 45 3 43 2 45 -24 45 -16 0 -28 -4
-28 -10z"/>
<path d="M1570 2154 c0 -8 5 -12 10 -9 6 3 10 10 10 16 0 5 -4 9 -10 9 -5 0
-10 -7 -10 -16z"/>
<path d="M1585 2110 c-27 -30 -12 -34 15 -5 13 14 19 25 13 25 -5 0 -18 -9
-28 -20z"/>
<path d="M601 2014 c-12 -15 -21 -33 -21 -40 0 -27 39 -54 78 -54 50 0 82 23
82 60 0 60 -99 84 -139 34z m100 -13 c20 -16 22 -23 13 -38 -21 -34 -88 -29
-99 8 -15 45 43 65 86 30z"/>
<path d="M1855 2018 c-59 -32 -59 -74 0 -122 37 -30 48 -35 64 -27 20 11 51 5
51 -10 0 -4 -9 -14 -19 -21 -19 -13 -18 -16 15 -66 20 -29 42 -52 50 -52 19 0
18 10 -3 26 -17 13 -17 15 2 30 11 8 39 20 63 27 39 10 54 29 33 41 -4 3 -33
-8 -62 -24 -79 -42 -95 -27 -39 39 24 28 41 54 38 57 -3 3 -34 -2 -68 -10 -46
-10 -69 -11 -84 -3 -12 5 -28 13 -36 17 -37 18 -14 72 37 85 27 6 63 -17 63
-42 0 -7 5 -13 10 -13 6 0 10 2 10 4 0 2 3 11 6 19 3 9 -7 22 -29 36 -38 23
-71 26 -102 9z"/>
<path d="M1390 1975 c-8 -9 -8 -15 -2 -15 12 0 26 19 19 26 -2 2 -10 -2 -17
-11z"/>
<path d="M512 1948 c-9 -9 -2 -17 31 -37 23 -13 47 -32 53 -40 10 -13 14 -13
28 -2 15 12 11 17 -34 43 -27 15 -50 33 -50 38 0 14 -13 13 -28 -2z"/>
<path d="M1360 1940 c-8 -5 -12 -11 -9 -14 2 -3 11 -1 19 4 8 5 12 11 9 14 -2
3 -11 1 -19 -4z"/>
<path d="M437 1876 c-23 -28 -33 -47 -26 -51 6 -4 16 1 23 11 12 16 17 16 46
4 17 -7 39 -20 47 -28 10 -11 20 -13 30 -6 15 9 15 31 0 26 -11 -3 -87 37 -87
47 0 5 7 11 15 15 18 7 20 26 2 26 -7 0 -29 -20 -50 -44z"/>
<path d="M1378 1902 c-8 -9 -26 -27 -39 -38 -36 -32 -84 -86 -96 -109 -6 -11
-10 -39 -9 -62 1 -25 -3 -44 -10 -47 -13 -5 -7 -56 6 -56 28 0 38 13 30 36 -8
19 -5 26 12 38 13 9 32 13 45 10 17 -5 23 -2 23 11 0 9 10 25 23 36 14 11 17
18 8 19 -10 0 -12 8 -7 30 6 32 -2 38 -22 18 -9 -9 -12 -9 -12 0 0 7 5 12 11
12 5 0 7 5 4 10 -3 6 3 10 14 10 28 0 54 39 39 58 -9 10 -9 15 1 22 7 4 9 10
4 13 -5 3 -16 -2 -25 -11z m-58 -192 c0 -5 -9 -10 -21 -10 -11 0 -17 5 -14 10
3 6 13 10 21 10 8 0 14 -4 14 -10z"/>
<path d="M1104 1866 c-8 -22 3 -33 18 -18 9 9 9 15 0 24 -9 9 -13 7 -18 -6z"/>
<path d="M1210 1789 c0 -5 5 -7 10 -4 6 3 10 8 10 11 0 2 -4 4 -10 4 -5 0 -10
-5 -10 -11z"/>
<path d="M370 1779 c0 -4 20 -23 45 -44 25 -20 43 -40 40 -45 -3 -4 -31 -2
-62 5 -57 13 -73 12 -73 -6 0 -5 18 -9 40 -9 22 0 40 -3 40 -8 0 -4 -23 -16
-52 -27 -72 -28 -71 -41 2 -48 71 -6 83 -13 55 -33 -18 -14 -39 -13 -77 1 -20
8 -46 -16 -50 -45 -3 -24 -1 -25 60 -28 42 -2 62 -7 61 -15 -1 -7 1 -20 6 -31
5 -11 3 -21 -5 -26 -18 -11 -40 -1 -33 16 3 9 -2 14 -17 14 -17 0 -20 -4 -15
-20 5 -16 2 -20 -15 -20 -19 0 -21 4 -16 25 5 18 2 25 -8 25 -18 0 -25 -20
-19 -54 4 -19 10 -25 20 -22 8 3 41 6 74 6 l59 0 0 63 0 64 -32 -4 c-31 -4
-32 -3 -14 11 11 9 26 16 33 16 12 0 33 38 33 61 0 5 -18 9 -40 9 -53 0 -51
14 6 36 40 15 74 45 74 65 0 4 -9 9 -20 12 -11 3 -20 10 -20 16 0 11 6 13 50
15 13 1 26 8 27 16 3 12 -11 15 -77 15 -44 0 -80 -3 -80 -6z m-20 -248 c0 -6
-5 -13 -10 -16 -15 -9 -43 3 -35 15 8 13 45 13 45 1z"/>
<path d="M2130 1772 c0 -5 -25 -26 -55 -47 -30 -20 -55 -41 -55 -45 0 -7 169
-20 178 -15 1 1 0 9 -3 17 -4 11 -19 14 -63 11 l-57 -4 30 25 c17 14 36 26 43
26 6 0 12 9 12 20 0 11 -7 20 -15 20 -8 0 -15 -4 -15 -8z"/>
<path d="M2040 1630 c0 -18 5 -21 32 -18 43 4 53 -28 13 -38 -24 -6 -26 -10
-21 -37 3 -16 6 -34 6 -39 0 -5 13 -7 30 -3 17 4 30 3 30 -2 0 -5 -13 -19 -30
-31 -26 -19 -30 -29 -30 -67 0 -25 5 -45 10 -45 6 0 10 5 10 10 0 19 55 10 92
-15 44 -30 48 -30 48 -6 0 12 -8 21 -22 23 -32 5 -35 28 -4 28 15 0 29 7 32
15 11 29 -7 32 -53 9 -54 -28 -81 -30 -89 -9 -11 27 36 54 82 48 49 -6 66 12
57 60 -5 23 -10 28 -27 23 -11 -2 -42 -8 -68 -11 -70 -10 -64 15 12 51 33 16
59 33 57 39 -2 5 -32 13 -66 17 -34 4 -71 10 -81 13 -16 5 -20 2 -20 -15z
m163 -151 c-13 -13 -43 -5 -43 10 0 13 33 20 45 9 5 -5 5 -12 -2 -19z"/>
<path d="M985 1610 c4 -6 11 -8 16 -5 14 9 11 15 -7 15 -8 0 -12 -5 -9 -10z"/>
<path d="M1525 1610 c-3 -5 1 -10 9 -10 9 0 16 5 16 10 0 6 -4 10 -9 10 -6 0
-13 -4 -16 -10z"/>
<path d="M870 1590 c0 -5 5 -10 11 -10 5 0 7 5 4 10 -3 6 -8 10 -11 10 -2 0
-4 -4 -4 -10z"/>
<path d="M1550 1570 c0 -17 5 -19 33 -13 39 7 41 9 32 22 -3 6 -19 11 -36 11
-22 0 -29 -5 -29 -20z"/>
<path d="M782 1559 c-9 -14 -19 -18 -32 -14 -15 5 -21 0 -26 -19 -3 -14 -10
-26 -14 -26 -4 0 -14 -20 -21 -45 -13 -44 -24 -56 -31 -35 -2 6 -17 12 -33 13
-29 2 -30 0 -33 -43 -4 -56 16 -123 35 -116 9 4 13 -6 14 -37 1 -63 9 -81 64
-143 74 -85 84 -92 163 -130 70 -33 93 -52 51 -41 -21 6 -21 6 1 -15 21 -19
33 -21 188 -20 91 0 174 -4 183 -9 40 -21 44 -124 5 -139 -11 -4 -32 -12 -46
-17 l-25 -10 32 -5 c40 -6 123 20 123 39 0 25 -41 111 -56 117 -7 3 -11 11 -8
19 3 10 34 16 107 20 157 10 204 20 204 43 0 11 -7 14 -24 11 -36 -7 -27 6 20
27 68 31 212 153 205 173 -2 5 6 8 17 8 11 0 21 7 21 15 1 8 2 23 3 33 1 22
20 22 37 0 18 -25 30 -8 16 22 -7 15 -8 25 -2 25 6 0 10 -4 10 -10 0 -20 21
-9 31 17 13 34 -8 126 -28 119 -9 -4 -11 8 -8 49 5 53 4 54 -18 46 -61 -23
-86 -28 -98 -20 -20 13 -39 11 -39 -4 0 -6 14 -18 32 -26 29 -13 33 -13 45 6
9 14 21 19 38 15 14 -2 25 -8 25 -13 0 -39 -92 -162 -131 -174 -14 -5 -26 1
-40 19 -11 14 -26 26 -32 26 -7 0 -17 8 -23 18 -15 22 -71 55 -78 44 -8 -13
104 -122 125 -122 10 0 20 -4 23 -9 8 -12 42 -3 57 15 6 8 17 14 25 14 25 0
-30 -78 -95 -135 -19 -16 -24 -17 -32 -5 -7 11 -8 9 -7 -9 2 -13 -2 -26 -8
-28 -7 -2 -10 5 -7 22 3 15 1 25 -6 25 -6 0 -11 -6 -12 -12 -2 -43 -33 -97
-55 -98 -16 0 -45 35 -41 51 2 8 2 11 0 7 -2 -4 -17 7 -33 25 -36 39 -39 21
-5 -33 30 -48 30 -50 5 -50 -15 0 -19 -6 -17 -22 1 -18 -4 -24 -24 -26 -22 -3
-30 5 -57 56 -18 33 -32 67 -32 76 0 9 -6 16 -12 16 -9 0 -8 4 2 10 12 8 11
10 -7 10 -24 0 -26 4 -14 34 7 18 12 16 53 -22 25 -23 48 -42 52 -42 17 0 3
29 -24 48 -16 13 -30 31 -30 41 0 13 -10 20 -30 25 -18 3 -30 12 -30 21 0 8
-6 15 -14 15 -7 0 -19 7 -26 15 -8 10 -26 14 -49 13 -30 -3 -36 0 -36 17 0 11
-6 20 -12 19 -7 -1 -19 -2 -26 -2 -7 -1 -19 -18 -26 -37 -9 -25 -18 -35 -34
-35 -16 0 -18 -3 -9 -12 10 -10 17 -10 32 0 26 16 31 15 23 -4 -4 -10 1 -17
16 -21 24 -6 24 -4 11 -38 -12 -32 -4 -51 16 -34 11 9 15 7 21 -7 6 -16 9 -14
19 11 11 25 13 26 14 9 0 -12 7 -37 15 -55 l14 -34 1 38 c0 20 5 37 10 37 14
0 18 -15 23 -83 3 -32 10 -64 16 -70 9 -9 10 4 5 57 -6 56 -5 68 7 64 7 -2 16
-19 20 -36 3 -17 14 -43 23 -56 29 -45 22 -55 -35 -50 -59 5 -69 9 -69 32 0
14 -1 14 -13 -2 -19 -26 -67 -6 -61 26 2 13 2 17 -2 11 -9 -20 -48 -15 -74 10
-22 20 -35 22 -131 23 -94 1 -110 4 -145 27 -61 38 -106 94 -95 116 6 10 7 28
4 40 -7 27 27 66 71 81 17 6 41 26 53 45 l22 35 -25 45 c-24 43 -44 51 -44 19
0 -8 -4 -14 -9 -14 -14 0 -1 38 16 44 17 7 8 26 -12 26 -7 0 -27 -11 -43 -25
-32 -27 -51 -19 -31 13 8 12 9 25 3 35 -9 15 -11 14 -22 -4z"/>
<path d="M690 1542 c0 -7 -6 -12 -14 -12 -7 0 -20 -8 -27 -17 -10 -11 -10 -14
-1 -9 17 10 15 -2 -3 -20 -8 -9 -15 -19 -15 -24 0 -12 32 -22 40 -13 11 13 32
95 26 101 -3 3 -6 0 -6 -6z"/>
<path d="M1509 1467 c-9 -7 -19 -25 -23 -41 l-7 -28 48 6 c49 7 76 29 71 56
-2 8 -11 16 -21 18 -12 2 -15 -1 -11 -12 3 -9 2 -16 -4 -16 -5 0 -12 7 -16 15
-7 18 -16 18 -37 2z"/>
<path d="M1043 1364 c15 -8 25 -19 22 -24 -4 -6 3 -10 13 -10 11 0 27 -11 36
-25 17 -25 40 -33 50 -16 12 19 -7 39 -52 56 -26 10 -51 22 -56 26 -6 5 -17 9
-25 9 -9 -1 -4 -7 12 -16z"/>
<path d="M284 1344 c4 -15 10 -39 13 -55 3 -16 10 -29 15 -29 6 0 8 -6 5 -13
-11 -30 8 -38 47 -22 21 9 40 14 43 11 3 -2 -7 -20 -21 -39 -39 -51 -34 -84 7
-52 11 7 38 17 60 20 53 9 61 14 47 30 -8 10 -18 9 -48 -6 -45 -24 -53 -10
-18 32 26 30 33 49 19 49 -5 0 -33 -7 -63 -15 -67 -18 -63 -18 -57 -1 3 7 0
19 -6 25 -17 17 -1 24 63 29 41 3 60 9 60 18 0 18 -19 28 -33 16 -7 -6 -32
-12 -57 -13 -40 -3 -45 -1 -48 19 -2 12 -10 22 -19 22 -11 0 -14 -6 -9 -26z"/>
<path d="M610 1240 c0 -5 5 -10 11 -10 5 0 7 5 4 10 -3 6 -8 10 -11 10 -2 0
-4 -4 -4 -10z"/>
<path d="M1973 1243 c-20 -7 -15 -34 16 -94 30 -58 51 -117 32 -89 -17 25 -23
3 -7 -27 11 -19 15 -23 16 -10 0 9 5 17 11 17 7 0 9 -11 6 -29 -4 -19 -1 -33
8 -41 8 -7 12 -16 9 -21 -3 -5 0 -9 5 -9 6 0 11 5 11 10 0 6 8 2 18 -7 11 -10
29 -26 41 -36 28 -23 14 -51 -34 -68 -34 -13 -45 -32 -25 -44 22 -13 8 -25
-30 -25 -39 0 -48 7 -32 26 5 5 7 31 4 57 -3 38 -8 47 -21 45 -21 -4 -29 -97
-9 -109 20 -13 3 -21 -52 -24 -56 -3 -72 -11 -50 -26 14 -9 141 -6 185 5 11 2
23 5 28 5 4 1 7 10 7 20 0 11 3 22 8 25 9 6 37 -15 45 -34 4 -8 5 -3 2 13 -4
18 -1 27 7 27 16 0 70 -88 63 -101 -7 -10 6 -12 29 -3 8 3 12 12 9 20 -3 9 1
14 12 14 9 0 13 -4 10 -10 -3 -5 1 -10 11 -10 12 0 15 6 11 21 -5 17 -3 18 9
8 9 -7 13 -21 10 -31 -3 -14 0 -18 12 -16 9 2 16 11 16 21 -2 21 -79 156 -108
188 -11 14 -34 51 -51 83 -34 67 -62 106 -76 106 -9 0 17 -48 32 -60 10 -9 29
-48 29 -62 0 -7 -19 18 -42 56 -26 44 -37 71 -30 74 19 6 14 28 -19 76 -35 52
-42 57 -33 21 8 -34 -2 -31 -21 5 -16 31 -45 41 -45 15 0 -8 -5 -15 -11 -15
-7 0 -9 10 -7 25 3 14 5 25 4 24 0 0 -7 -3 -13 -6z m111 -99 c3 -8 2 -12 -4
-9 -6 3 -10 10 -10 16 0 14 7 11 14 -7z m-14 -159 c0 -8 -2 -15 -4 -15 -2 0
-6 7 -10 15 -3 8 -1 15 4 15 6 0 10 -7 10 -15z m150 -54 c15 -29 12 -33 -10
-14 -21 19 -26 33 -10 33 5 0 14 -9 20 -19z m53 -97 c15 -31 26 -59 23 -61 -2
-2 -17 23 -34 56 -17 34 -27 61 -24 61 4 0 20 -25 35 -56z"/>
<path d="M1670 1171 c0 -6 5 -13 10 -16 6 -3 10 1 10 9 0 9 -4 16 -10 16 -5 0
-10 -4 -10 -9z"/>
<path d="M460 1134 c-25 -13 -53 -23 -62 -24 -21 0 -23 -13 -4 -29 10 -8 16
-8 25 3 6 7 33 19 59 26 62 17 65 19 51 36 -14 17 -13 17 -69 -12z"/>
<path d="M1420 1118 c0 -9 5 -20 11 -23 17 -11 20 0 4 21 -13 17 -14 17 -15 2z"/>
<path d="M1980 1090 c0 -5 5 -10 11 -10 5 0 7 5 4 10 -3 6 -8 10 -11 10 -2 0
-4 -4 -4 -10z"/>
<path d="M426 973 c-5 -15 -1 -36 12 -60 11 -21 38 -76 59 -123 22 -47 58
-126 81 -175 23 -50 42 -93 42 -97 0 -7 92 -207 109 -238 16 -28 93 -14 331
59 129 40 267 81 305 92 83 24 117 37 95 38 -8 0 -53 -11 -100 -25 -47 -14
-107 -32 -135 -39 -27 -7 -90 -25 -140 -40 -49 -15 -119 -35 -155 -44 -36 -10
-81 -25 -100 -33 -48 -19 -65 -13 -85 30 -46 99 -86 184 -119 254 -20 42 -36
81 -36 86 0 5 -8 20 -18 33 -10 13 -36 65 -56 114 -21 50 -45 101 -53 114 -9
13 -19 36 -23 50 -7 26 -7 26 -14 4z"/>
<path d="M2070 880 c0 -16 5 -21 23 -18 12 2 22 10 22 18 0 8 -10 16 -22 18
-18 3 -23 -2 -23 -18z"/>
<path d="M1783 873 c-8 -20 1 -25 31 -17 33 8 33 20 0 27 -16 3 -28 0 -31 -10z"/>
<path d="M1892 838 c2 -41 7 -54 21 -56 14 -3 17 5 17 52 0 50 -2 56 -21 56
-18 0 -20 -5 -17 -52z"/>
<path d="M1640 870 c0 -27 77 -40 87 -15 8 21 -6 33 -17 15 -8 -12 -13 -13
-30 -2 -24 14 -40 16 -40 2z"/>
<path d="M1496 861 c-8 -12 3 -41 15 -41 12 0 12 37 0 45 -5 3 -12 1 -15 -4z"/>
<path d="M1215 836 c-20 -30 -13 -76 11 -76 10 0 14 6 10 15 -8 21 3 45 21 45
20 0 12 34 -9 38 -9 2 -24 -8 -33 -22z"/>
<path d="M1396 852 c-2 -4 -1 -14 5 -22 7 -12 9 -10 9 8 0 23 -5 28 -14 14z"/>
<path d="M1570 845 c0 -9 -6 -26 -14 -38 -8 -12 -17 -32 -21 -44 -5 -18 -2
-23 13 -23 27 0 45 25 37 50 -4 13 -1 22 9 26 12 5 13 9 3 25 -14 23 -27 25
-27 4z"/>
<path d="M1057 833 c-7 -13 5 -83 14 -83 5 0 9 20 9 45 0 40 -11 58 -23 38z"/>
<path d="M677 812 c-10 -11 -17 -23 -16 -28 5 -27 -2 -34 -26 -28 -19 5 -25 2
-25 -9 0 -9 5 -19 10 -22 15 -9 12 -25 -5 -25 -17 0 -20 -16 -5 -25 12 -8 50
12 50 26 0 6 9 24 21 40 13 18 19 40 17 60 -3 31 -3 31 -21 11z"/>
<path d="M750 821 c0 -17 15 -19 28 -5 11 12 9 14 -8 14 -11 0 -20 -4 -20 -9z"/>
<path d="M828 823 c-10 -3 -18 -16 -20 -31 -3 -23 -7 -27 -31 -24 -26 3 -34
-14 -13 -29 11 -9 46 1 46 12 0 5 6 9 14 9 8 0 17 14 21 31 8 35 7 37 -17 32z"/>
<path d="M910 806 c0 -33 10 -57 21 -50 16 9 11 74 -6 74 -9 0 -15 -9 -15 -24z"/>
<path d="M1785 820 c-3 -5 -3 -21 1 -35 4 -17 2 -25 -7 -26 -8 -1 -21 -2 -29
-3 -8 -1 -19 2 -25 5 -13 8 -77 -19 -71 -30 5 -8 186 -3 196 6 2 2 -2 8 -10
13 -12 7 -12 13 -1 33 7 14 10 30 7 36 -9 14 -53 15 -61 1z"/>
<path d="M610 810 c0 -5 5 -10 10 -10 6 0 10 5 10 10 0 6 -4 10 -10 10 -5 0
-10 -4 -10 -10z"/>
<path d="M1447 793 c-13 -12 -7 -53 7 -53 20 0 29 16 21 40 -6 20 -17 25 -28
13z"/>
<path d="M1720 790 c0 -5 5 -10 10 -10 6 0 10 5 10 10 0 6 -4 10 -10 10 -5 0
-10 -4 -10 -10z"/>
<path d="M1125 725 c-5 -2 -63 -7 -129 -10 -74 -5 -113 -10 -105 -16 15 -9
176 -4 235 7 19 3 31 10 28 15 -5 9 -12 10 -29 4z"/>
<path d="M761 701 c-7 -5 -9 -11 -5 -14 14 -8 114 5 114 14 0 12 -91 11 -109
0z"/>
<path d="M2190 680 c0 -5 5 -10 10 -10 6 0 10 5 10 10 0 6 -4 10 -10 10 -5 0
-10 -4 -10 -10z"/>
<path d="M2090 640 c0 -5 -13 -10 -30 -10 -16 0 -30 -5 -30 -11 0 -6 -9 -8
-20 -4 -11 3 -20 2 -20 -3 0 -5 -10 -12 -22 -15 -12 -4 -19 -9 -16 -12 3 -4
41 5 85 19 43 13 94 29 113 34 l35 10 -47 1 c-27 1 -48 -3 -48 -9z"/>
<path d="M1905 580 c-16 -7 -17 -9 -3 -9 9 -1 20 4 23 9 7 11 7 11 -20 0z"/>
<path d="M1840 570 c0 -5 7 -10 15 -10 8 0 15 5 15 10 0 6 -7 10 -15 10 -8 0
-15 -4 -15 -10z"/>
<path d="M1790 550 c0 -13 11 -13 30 0 12 8 11 10 -7 10 -13 0 -23 -4 -23 -10z"/>
<path d="M1617 510 c-20 -4 -41 -10 -45 -15 -8 -8 73 4 103 16 l20 8 -20 -1
c-11 0 -37 -4 -58 -8z"/>
<path d="M1513 483 c-13 -2 -23 -9 -23 -14 0 -12 2 -12 41 6 33 14 27 17 -18
8z"/>
</g>
</svg>
